<?xml version="1.0" encoding="utf-8"?>
<!-- Generator: Adobe Illustrator 18.1.0, SVG Export Plug-In . SVG Version: 6.00 Build 0)  -->
<!DOCTYPE svg PUBLIC "-//W3C//DTD SVG 1.1//EN" "http://www.w3.org/Graphics/SVG/1.1/DTD/svg11.dtd">
<svg version="1.1" id="Ebene_1" xmlns="http://www.w3.org/2000/svg" xmlns:xlink="http://www.w3.org/1999/xlink" x="0px" y="0px"
	 viewBox="785.6 403.6 188 34.5" enable-background="new 785.6 403.6 188 34.5" xml:space="preserve">
<g>
	<path d="M844.2,423.2c0-4.5,0-9,0-13.5c0-0.7,0-0.7,0.7-0.7c3.7,0,7.4,0,11,0c2.2,0,4.3,0.5,6.3,1.6c2.3,1.4,3.5,3.4,3.7,6.1
		c0.1,1.7-0.1,3.4-1.1,4.9c-1,1.7-2.5,2.7-4.3,3.4c-0.4,0.1-0.4,0.3-0.2,0.6c2.3,3.7,4.5,7.4,6.8,11c0.1,0.1,0.1,0.2,0.2,0.3
		c0.1,0.2,0,0.2-0.1,0.3c-0.1,0-0.2,0-0.3,0c-2.3,0-4.7,0-7,0c-0.4,0-0.6-0.1-0.8-0.5c-1.9-3.4-3.7-6.8-5.6-10.2
		c-0.2-0.3-0.4-0.5-0.8-0.5c-0.4,0-0.8,0-1.2,0c-0.3,0-0.5,0.1-0.5,0.5c0,1,0,2.1,0,3.1c0,2.3,0,4.7,0,7c0,0.6,0,0.6-0.6,0.6
		c-1.9,0-3.8,0-5.7,0c-0.5,0-0.6,0-0.6-0.6C844.1,432.3,844.1,427.7,844.2,423.2C844.1,423.2,844.1,423.2,844.2,423.2z M850.9,417.9
		c0,0.9,0,1.8,0,2.7c0,0.4,0.1,0.5,0.5,0.5c0.9,0,1.9,0,2.8,0c1,0,2-0.1,2.9-0.5c2-0.8,2.6-3.4,1.1-4.8c-0.6-0.6-1.5-0.9-2.3-1
		c-1.5-0.2-3.1-0.1-4.6-0.1c-0.3,0-0.4,0.2-0.4,0.4C851,416,850.9,416.9,850.9,417.9z"/>
	<path d="M841.1,417.9c0,2.6,0,5.2,0,7.9c-0.1,3.7,0,7.4-0.1,11.1c0,0.4-0.1,0.6-0.5,0.6c-1.9,0-3.7,0-5.6,0c-0.4,0-0.6-0.1-0.5-0.5
		c0-1.5,0-3,0-4.5c0-0.4-0.1-0.5-0.5-0.5c-3.2,0-6.4,0-9.6,0c-0.3,0-0.5,0.1-0.7,0.4c-1.3,1.6-2.6,3.2-3.9,4.9
		c-0.2,0.2-0.4,0.3-0.7,0.3c-2.6,0-5.2,0-7.8,0c-0.1,0-0.4,0.1-0.4-0.1c-0.1-0.2,0.1-0.3,0.2-0.4c3.6-4.3,7.3-8.6,10.9-13
		c3.2-3.8,6.4-7.6,9.6-11.4c0.9-1.1,1.8-2.1,2.7-3.1c0.2-0.2,0.4-0.3,0.6-0.3c1.9,0,3.8,0,5.8,0c0.5,0,0.5,0,0.5,0.6
		C841.1,412.4,841.1,415.2,841.1,417.9C841.1,417.9,841.1,417.9,841.1,417.9z M834.3,417.7C834.2,417.7,834.2,417.8,834.3,417.7
		c-2,2.7-3.9,5.4-5.9,8.1c-0.1,0.1-0.2,0.2-0.1,0.3c0.1,0.1,0.2,0.1,0.3,0.1c1.7,0,3.4,0,5.1,0c0.4,0,0.6-0.2,0.6-0.6
		c0-2.5,0-5,0-7.5C834.4,418,834.4,417.9,834.3,417.7z"/>
	<path d="M877,438c-2.7-0.1-6-1-8.9-3.3c-0.9-0.7-0.9-0.7-0.1-1.5c1.2-1.2,2.4-2.4,3.5-3.5c0.2-0.3,0.4-0.2,0.6,0c2,2,4.3,3,7.1,2.5
		c1.2-0.2,2.4-1,2.5-2.6c0.1-1.2-0.5-2-1.4-2.5c-0.9-0.6-2-0.9-3-1.2c-1.6-0.5-3.1-1-4.6-1.8c-2.4-1.3-3.7-3.2-4-6
		c-0.2-2.7,0.5-5,2.6-6.9c1.5-1.4,3.2-2.1,5.2-2.5c3.9-0.8,7.6-0.2,11,2c0.4,0.2,0.7,0.5,1.1,0.8c0.4,0.3,0.4,0.4,0,0.8
		c-1,1-2,2-3,3.1c-0.2,0.3-0.5,0.5-0.7,0.8c-0.3,0.4-0.4,0.4-0.7,0c-1.4-1.5-3.1-2.2-5.2-2.1c-0.8,0-1.6,0.2-2.3,0.7
		c-1.4,0.9-1.4,3-0.1,3.9c0.8,0.5,1.6,0.8,2.5,1.1c1.8,0.6,3.6,1.1,5.2,2c1.5,0.8,2.9,1.9,3.6,3.4c1,1.9,1,3.9,0.4,6
		c-0.8,3-2.8,4.9-5.6,6C881.2,437.8,879.9,438,877,438z"/>
	<path fill="#7FBA27" d="M934.6,427.9c0.1,5.2-3.8,9.4-9.2,9.9c-3.1,0.3-5.8-0.5-8.1-2.5c-1.6-1.4-2.6-3.2-3.1-5.3
		c-0.5-2.5-0.2-4.9,1.1-7.2c1.5-2.6,3.9-4.1,6.8-4.7c3.1-0.6,5.9,0,8.5,1.8c2.2,1.6,3.3,3.7,3.8,6.3
		C934.6,426.8,934.6,427.3,934.6,427.9z M930.6,427.8c0-0.3,0-0.5,0-0.8c-0.2-1.8-0.8-3.4-2.2-4.6c-1.3-1.1-2.9-1.5-4.6-1.3
		c-1.7,0.2-3.1,0.8-4.1,2.2c-1.7,2.2-1.9,4.7-1,7.2c1.6,4.5,6.8,4.9,9.5,2.8C929.9,432,930.6,430,930.6,427.8z"/>
	<path fill="#7FBA27" d="M969.8,434.6c-0.6,0.7-1.1,1.3-1.8,1.8c-1.2,0.8-2.5,1.3-3.9,1.3c-1.7,0.1-3.3-0.1-4.8-0.9
		c-1.9-1-2.8-2.6-2.9-4.7c-0.1-2.7,1.4-4.4,3.6-5.3c1.5-0.6,3.1-0.9,4.7-1.1c1.5-0.2,3-0.1,4.4-0.2c0.3,0,0.4-0.1,0.5-0.5
		c0.1-2.2-1.4-3.8-3.7-4c-2.3-0.2-4.3,0.4-6.1,1.9c-0.2,0.2-0.3,0.1-0.5-0.1c-0.5-0.6-1-1.2-1.5-1.8c-0.4-0.4-0.4-0.4,0.1-0.8
		c1.1-0.9,2.2-1.5,3.5-1.9c2.3-0.7,4.6-0.8,6.9-0.2c2.7,0.7,4.5,3,4.8,5.8c0.2,1.6,0.1,3.2,0.1,4.7s0,3.1,0,4.7c0,1.2,0,2.3,0.2,3.4
		c0,0.3,0,0.4-0.3,0.4c-0.9,0-1.9,0-2.8,0c-0.3,0-0.4-0.1-0.4-0.4C969.9,436.2,969.8,435.5,969.8,434.6z M969.6,429.4
		c0-0.2,0-0.4,0-0.6c0-0.4-0.1-0.5-0.5-0.5c-1,0-2,0-2.9,0.1c-1.2,0.1-2.3,0.2-3.4,0.6c-0.6,0.2-1.1,0.4-1.5,0.9
		c-1.3,1.2-1.1,3.3,0.4,4.2c1.6,0.9,3.3,0.8,5,0.1C968.7,433.4,969.5,431.6,969.6,429.4z"/>
	<path fill="#7FBA27" d="M896.9,421.4c0.5-1,1.2-1.7,2.2-2.3c2.7-1.8,6.2-1.6,8.7,0.4c1.2,1,1.8,2.4,2.2,3.9
		c0.2,0.9,0.3,1.9,0.3,2.9c0,3.4,0,6.9,0,10.4c0,0.7,0,0.7-0.7,0.7c-0.9,0-1.7,0-2.6,0c-0.6,0-0.6,0-0.6-0.6c0-3.4,0-6.8,0-10.1
		c0-0.8-0.1-1.5-0.3-2.3c-0.7-3-3.8-4.2-6.4-2.6c-1.5,0.9-2.2,2.3-2.5,4c-0.1,0.5-0.1,1-0.1,1.5c0,3.2,0,6.3,0,9.5
		c0,0.6,0,0.6-0.7,0.6c-0.9,0-1.8,0-2.8,0c-0.4,0-0.5-0.1-0.5-0.5c0-2.7-0.1-16.3-0.1-17.8c-0.1-0.6,0-0.7,0.6-0.7
		c0.8,0,1.6,0,2.4,0c0.6,0,0.6,0,0.7,0.6c0,0.6,0.1,1.3,0.1,1.9C896.8,421,896.8,421.2,896.9,421.4
		C896.8,421.3,896.8,421.4,896.9,421.4z"/>
	<path fill="#7FBA27" d="M945.7,433c0.3-0.9,0.7-1.8,1-2.7c1.5-3.9,2.9-7.7,4.4-11.6c0.1-0.3,0.3-0.4,0.5-0.4c1.1,0,2.2,0,3.2,0
		c0.4,0,0.4,0.1,0.3,0.5c-1.1,2.6-2.1,5.2-3.1,7.8c-1.4,3.4-2.8,6.8-4.1,10.3c-0.1,0.3-0.3,0.4-0.6,0.4c-1,0-2.1,0-3.1,0
		c-0.4,0-0.6-0.1-0.8-0.5c-1.8-4.3-3.5-8.7-5.3-13.1c-0.7-1.6-1.3-3.2-2-4.9c-0.2-0.5-0.2-0.5,0.3-0.5c1.1,0,2.1,0,3.2,0
		c0.4,0,0.6,0.1,0.7,0.5c1.6,4.2,3.1,8.3,4.7,12.5C945.2,431.9,945.4,432.5,945.7,433C945.6,433,945.7,433,945.7,433z"/>
	<path fill="#7FBA27" d="M804.2,427.2c-0.4,3.1-1.4,6.2-2.3,9.2c-0.1,0.4-0.4,0.7-0.8,0.8c-0.4,0.1-0.8,0.2-1.2,0.2c0,0-0.1,0-0.1,0
		s-0.1,0-0.1,0c-0.4,0-0.8-0.1-1.2-0.2c-0.4-0.1-0.7-0.4-0.8-0.8c-1-3-1.9-6.1-2.3-9.2c-0.3-1.8-0.1-3.7-0.1-5.6c0-0.4,0-0.8,0-1.2
		c0.1-0.7,0.5-1.2,1-1.5c0.7-0.4,1.5-0.5,2.3-0.6c0.4,0,0.8,0,1.2,0h0h0c0.4,0,0.8,0,1.2,0c0.8,0.1,1.6,0.2,2.3,0.6
		c0.6,0.3,1,0.8,1,1.5c0,0.4,0,0.8,0,1.2C804.3,423.5,804.5,425.4,804.2,427.2z"/>
	<path fill="#7FBA27" d="M799.8,418.3C799.8,418.3,799.8,418.3,799.8,418.3C799.8,418.3,799.8,418.3,799.8,418.3L799.8,418.3z"/>
	<path fill="#7FBA27" d="M799.8,437.4L799.8,437.4C799.8,437.4,799.8,437.4,799.8,437.4C799.8,437.4,799.8,437.4,799.8,437.4z"/>
	<path fill="#7FBA27" d="M799.7,437.4C799.7,437.4,799.7,437.4,799.7,437.4C799.7,437.4,799.7,437.4,799.7,437.4L799.7,437.4z"/>
	<path fill="#7FBA27" d="M799.8,418.3L799.8,418.3L799.8,418.3C799.7,418.3,799.7,418.3,799.8,418.3z"/>
	<path fill="#7FBA27" d="M799.8,417.5c2.3,0,4.2-2,4.2-4.2c0-2.4-1.9-4.2-4.3-4.2c-2.3,0-4.2,1.9-4.2,4.2
		C795.5,415.5,797.5,417.5,799.8,417.5z"/>
	<path fill="#7FBA27" d="M814.1,409.5c-0.6-2.4-2.8-5.6-4.1-5.9c1.4,2.5,2.3,5,2.5,7.8c0.2,2.8-0.1,5.4-0.9,8.1
		C814.1,416.5,815,413.2,814.1,409.5z"/>
	<path fill="#7FBA27" d="M789.9,403.6c-5.4,3.7-5.6,11.9-1.5,15.8C786.7,413.9,787.2,408.7,789.9,403.6z"/>
	<path fill="#7FBA27" d="M807,405.3c2.3,4.2,2.7,8.6,1.2,13.2C811.7,415.3,811.5,408.5,807,405.3z"/>
	<path fill="#7FBA27" d="M793,405.4c-2.2,1.6-3.3,3.8-3.5,6.5c-0.2,2.6,0.6,4.8,2.4,6.7C790.3,414,790.7,409.6,793,405.4z"/>
	<path fill="#7FBA27" d="M792.3,413c0,1.7,0.5,3.2,1.8,4.5c-1-3.3-0.8-6.4,0.8-9.5C793.2,409.3,792.3,411,792.3,413z"/>
	<path fill="#7FBA27" d="M805.1,408c0.8,1.5,1.3,3,1.5,4.7c0.2,1.7-0.1,3.3-0.6,4.9C808.5,415.2,808.4,410.4,805.1,408z"/>
</g>
</svg>
